<svg width="29" height="28" viewBox="0 0 29 28" fill="none" xmlns="http://www.w3.org/2000/svg">
<g opacity="0.5">
<circle cx="14.6367" cy="13.9106" r="13.9106" fill="#4E6297"/>
<path d="M20.8968 9.61128C20.8968 8.56978 19.9778 7.65082 18.9363 7.65082H11.0332C9.99172 7.65082 9.07275 8.56978 9.07275 9.61128V17.5144C9.07275 18.5559 9.99172 19.4748 11.0332 19.4748H15.0154V15.0025H13.5451V13.0421H15.0154V12.2456C15.0154 10.8978 15.9956 9.7338 17.2209 9.7338H18.8138V11.6943H17.2209C17.0371 11.6943 16.8533 11.8781 16.8533 12.2456V13.0421H18.8138V15.0025H16.8533V19.4748H18.9363C19.9778 19.4748 20.8968 18.5559 20.8968 17.5144V9.61128Z" fill="white"/>
</g>
</svg>
